<svg width="3218" height="1114" xmlns="http://www.w3.org/2000/svg" xmlns:xlink="http://www.w3.org/1999/xlink" xml:space="preserve" overflow="hidden"><defs><linearGradient x1="1979.89" y1="1590.55" x2="2019.11" y2="1311.45" gradientUnits="userSpaceOnUse" spreadMethod="reflect" id="fill0"><stop offset="0" stop-color="#9ADD55" stop-opacity="1"/><stop offset="0.73" stop-color="#FFFFFF" stop-opacity="0"/><stop offset="1" stop-color="#FFFFFF" stop-opacity="0"/></linearGradient><linearGradient x1="2246.06" y1="1178.08" x2="1992.83" y2="1301.72" gradientUnits="userSpaceOnUse" spreadMethod="reflect" id="fill1"><stop offset="0" stop-color="#3E6FC8" stop-opacity="1"/><stop offset="0.73" stop-color="#FFFFFF" stop-opacity="0"/><stop offset="1" stop-color="#FFFFFF" stop-opacity="0"/></linearGradient><linearGradient x1="1770.64" y1="1149.99" x2="1986.49" y2="1331.16" gradientUnits="userSpaceOnUse" spreadMethod="reflect" id="fill2"><stop offset="0" stop-color="#FE4E50" stop-opacity="1"/><stop offset="0.73" stop-color="#FFFFFF" stop-opacity="0"/><stop offset="1" stop-color="#FFFFFF" stop-opacity="0"/></linearGradient><clipPath id="clip3"><path d="M1999.5 1288.5 1992 1304 1976.5 1311.5 1992 1319 1999.5 1334.5 2007 1319 2022.5 1311.5 2007 1304ZM499 866 3717 866 3717 1980 499 1980Z" fill-rule="evenodd" clip-rule="evenodd"/></clipPath><radialGradient cx="786938" cy="786938" r="1112898" gradientUnits="userSpaceOnUse" spreadMethod="pad" id="fill4" gradientTransform="matrix(0.000360892 0 0 0.000360892 1715 1027)"><stop offset="0" stop-color="#000000" stop-opacity="1"/><stop offset="0.67" stop-color="#000000" stop-opacity="1"/><stop offset="0.73" stop-color="#FFFFFF" stop-opacity="1"/><stop offset="1" stop-color="#FFFFFF" stop-opacity="1"/></radialGradient></defs><g transform="translate(-499 -866)"><g><rect x="1976" y="1312" width="47.0001" height="278" fill="url(#fill0)"/><path d="M2247.82 1181.69 2017.46 1337.2 1991.07 1298.11 2221.43 1142.6Z" fill="url(#fill1)" fill-rule="nonzero"/><path d="M1773.22 1146.92 2008.9 1294.24 1983.91 1334.23 1748.22 1186.91Z" fill="url(#fill2)" fill-rule="nonzero"/><path d="M2021.74 1571.1 2021.74 1342.93 2027.19 1338.42C2030.66 1334.96 2033.46 1330.83 2035.4 1326.24L2037.58 1319.24 2230.57 1189.25 2240.47 1209.79C2253.67 1241 2260.97 1275.31 2260.97 1311.33 2260.97 1446.4 2158.31 1557.49 2026.77 1570.85L2021.74 1571.1Z" stroke="#000000" stroke-width="4.58333" stroke-linecap="butt" stroke-linejoin="miter" stroke-miterlimit="8" stroke-opacity="1" fill="#FE4E50" fill-rule="evenodd" fill-opacity="1"/><path d="M1978.46 1571.1 1973.43 1570.85C1841.88 1557.49 1739.23 1446.4 1739.23 1311.33 1739.23 1275.31 1746.53 1241 1759.73 1209.79L1766.76 1195.2 1962.69 1319.45 1964.79 1326.24C1966.73 1330.83 1969.54 1334.96 1973.01 1338.42L1978.46 1342.93 1978.46 1571.1Z" stroke="#000000" stroke-width="4.58333" stroke-linecap="butt" stroke-linejoin="miter" stroke-miterlimit="8" stroke-opacity="1" fill="#3E6FC8" fill-rule="evenodd" fill-opacity="1"/><path d="M1979.7 1279 1789.22 1158.2 1798.8 1145.39C1846.65 1087.42 1919.06 1050.46 2000.1 1050.46 2081.14 1050.46 2153.55 1087.42 2201.4 1145.39L2207.03 1152.93 2020.14 1278.81 2015.01 1276.03C2010.43 1274.09 2005.39 1273.02 2000.1 1273.02 1994.81 1273.02 1989.77 1274.09 1985.18 1276.03L1979.7 1279Z" stroke="#000000" stroke-width="4.58333" stroke-linecap="butt" stroke-linejoin="miter" stroke-miterlimit="8" stroke-opacity="1" fill="#9ADD55" fill-rule="evenodd" fill-opacity="1"/><g clip-path="url(#clip3)"><path d="M1976.5 1311.5 1992 1304 1999.5 1288.5 2007 1304 2022.5 1311.5 2007 1319 1999.5 1334.5 1992 1319Z" stroke="#172C51" stroke-width="4.58333" stroke-linecap="butt" stroke-linejoin="miter" stroke-miterlimit="8" stroke-opacity="1" fill="#FFFD59" fill-rule="evenodd" fill-opacity="1"/></g><path d="M1976.5 1311.5 1992 1304 1999.5 1288.5 2007 1304 2022.5 1311.5 2007 1319 1999.5 1334.5 1992 1319Z" stroke="#172C51" stroke-width="4.58333" stroke-linecap="butt" stroke-linejoin="miter" stroke-miterlimit="8" stroke-opacity="1" fill="#FFFD59" fill-rule="evenodd" fill-opacity="1"/><path d="M1999 1051.43C1855.64 1051.43 1739.43 1167.64 1739.43 1311 1739.43 1454.36 1855.64 1570.57 1999 1570.57 2142.36 1570.57 2258.57 1454.36 2258.57 1311 2258.57 1167.64 2142.36 1051.43 1999 1051.43ZM1999 1027C2155.85 1027 2283 1154.15 2283 1311 2283 1467.85 2155.85 1595 1999 1595 1842.15 1595 1715 1467.85 1715 1311 1715 1154.15 1842.15 1027 1999 1027Z" fill="url(#fill4)" fill-rule="evenodd"/><text fill="#000000" fill-opacity="1" font-family="Phosphate,Phosphate_MSFontService,sans-serif" font-style="normal" font-variant="normal" font-weight="400" font-stretch="normal" font-size="527" text-anchor="start" direction="ltr" writing-mode="lr-tb" unicode-bidi="normal" text-decoration="none" transform="matrix(1 0 0 1 816.736 1524)">TUB</text><text fill="#000000" fill-opacity="1" font-family="Phosphate,Phosphate_MSFontService,sans-serif" font-style="normal" font-variant="normal" font-weight="400" font-stretch="normal" font-size="527" text-anchor="start" direction="ltr" writing-mode="lr-tb" unicode-bidi="normal" text-decoration="none" transform="matrix(1 0 0 1 2310.38 1524)">COM</text></g></g></svg>