<svg width="1833" height="1829" xmlns="http://www.w3.org/2000/svg" xmlns:xlink="http://www.w3.org/1999/xlink" xml:space="preserve" overflow="hidden"><defs><linearGradient x1="2064.92" y1="2129.82" x2="2191.08" y2="1232.18" gradientUnits="userSpaceOnUse" spreadMethod="reflect" id="fill0"><stop offset="0" stop-color="#9ADD55" stop-opacity="1"/><stop offset="0.73" stop-color="#FFFFFF" stop-opacity="0"/><stop offset="1" stop-color="#FFFFFF" stop-opacity="0"/></linearGradient><linearGradient x1="2920.6" y1="803.89" x2="2106.27" y2="1201.48" gradientUnits="userSpaceOnUse" spreadMethod="reflect" id="fill1"><stop offset="0" stop-color="#3E6FC8" stop-opacity="1"/><stop offset="0.73" stop-color="#FFFFFF" stop-opacity="0"/><stop offset="1" stop-color="#FFFFFF" stop-opacity="0"/></linearGradient><linearGradient x1="1391.76" y1="713.562" x2="2085.88" y2="1296.16" gradientUnits="userSpaceOnUse" spreadMethod="reflect" id="fill2"><stop offset="0" stop-color="#FE4E50" stop-opacity="1"/><stop offset="0.73" stop-color="#FFFFFF" stop-opacity="0"/><stop offset="1" stop-color="#FFFFFF" stop-opacity="0"/></linearGradient><clipPath id="clip3"><path d="M2126.5 1157 2102.21 1207.21 2052 1231.5 2102.21 1255.79 2126.5 1306 2150.79 1255.79 2201 1231.5 2150.79 1207.21ZM1210 316 3043 316 3043 2145 1210 2145Z" fill-rule="evenodd" clip-rule="evenodd"/></clipPath><radialGradient cx="2529840" cy="2529840" r="3577734" gradientUnits="userSpaceOnUse" spreadMethod="pad" id="fill4" gradientTransform="matrix(0.000360892 0 0 0.000360892 1214 318)"><stop offset="0" stop-color="#000000" stop-opacity="1"/><stop offset="0.67" stop-color="#000000" stop-opacity="1"/><stop offset="0.73" stop-color="#FFFFFF" stop-opacity="1"/><stop offset="1" stop-color="#FFFFFF" stop-opacity="1"/></radialGradient></defs><g transform="translate(-1210 -316)"><g><rect x="2052" y="1234" width="152" height="894" fill="url(#fill0)"/><path d="M2926.26 815.48 2185.47 1315.59 2100.61 1189.89 2841.4 689.779Z" fill="url(#fill1)" fill-rule="nonzero"/><path d="M1400.05 703.683 2157.97 1177.43 2077.58 1306.04 1319.66 832.291Z" fill="url(#fill2)" fill-rule="nonzero"/><path d="M2199.23 2067.77 2199.23 1333.99 2216.78 1319.52C2227.93 1308.37 2236.95 1295.09 2243.19 1280.35L2250.18 1257.81 2870.81 839.815 2902.62 905.856C2945.07 1006.22 2968.55 1116.56 2968.55 1232.39 2968.55 1666.74 2638.44 2023.99 2215.43 2066.95L2199.23 2067.77Z" stroke="#000000" stroke-width="13.75" stroke-linecap="butt" stroke-linejoin="miter" stroke-miterlimit="8" stroke-opacity="1" fill="#FE4E50" fill-rule="evenodd" fill-opacity="1"/><path d="M2060.08 2067.77 2043.88 2066.95C1620.87 2023.99 1290.76 1666.74 1290.76 1232.39 1290.76 1116.56 1314.24 1006.22 1356.69 905.856L1379.29 858.941 2009.34 1258.51 2016.12 1280.35C2022.36 1295.09 2031.38 1308.37 2042.53 1319.52L2060.08 1333.99 2060.08 2067.77Z" stroke="#000000" stroke-width="13.75" stroke-linecap="butt" stroke-linejoin="miter" stroke-miterlimit="8" stroke-opacity="1" fill="#3E6FC8" fill-rule="evenodd" fill-opacity="1"/><path d="M2064.06 1128.43 1451.52 739.97 1482.33 698.777C1636.19 512.336 1869.05 393.498 2129.66 393.498 2390.27 393.498 2623.12 512.336 2776.99 698.777L2795.12 723.022 2194.1 1127.81 2177.62 1118.86C2162.88 1112.62 2146.67 1109.18 2129.66 1109.18 2112.64 1109.18 2096.44 1112.62 2081.7 1118.86L2064.06 1128.43Z" stroke="#000000" stroke-width="13.75" stroke-linecap="butt" stroke-linejoin="miter" stroke-miterlimit="8" stroke-opacity="1" fill="#9ADD55" fill-rule="evenodd" fill-opacity="1"/><g clip-path="url(#clip3)"><path d="M2052 1231.5 2102.21 1207.21 2126.5 1157 2150.79 1207.21 2201 1231.5 2150.79 1255.79 2126.5 1306 2102.21 1255.79Z" stroke="#172C51" stroke-width="13.75" stroke-linecap="butt" stroke-linejoin="miter" stroke-miterlimit="8" stroke-opacity="1" fill="#FFFD59" fill-rule="evenodd" fill-opacity="1"/></g><path d="M2052 1231.5 2102.21 1207.21 2126.5 1157 2150.79 1207.21 2201 1231.5 2150.79 1255.79 2126.5 1306 2102.21 1255.79Z" stroke="#172C51" stroke-width="13.75" stroke-linecap="butt" stroke-linejoin="miter" stroke-miterlimit="8" stroke-opacity="1" fill="#FFFD59" fill-rule="evenodd" fill-opacity="1"/><path d="M2127 396.538C1666.14 396.538 1292.54 770.139 1292.54 1231 1292.54 1691.86 1666.14 2065.46 2127 2065.46 2587.86 2065.46 2961.46 1691.86 2961.46 1231 2961.46 770.139 2587.86 396.538 2127 396.538ZM2127 318C2631.24 318 3040 726.764 3040 1231 3040 1735.24 2631.24 2144 2127 2144 1622.76 2144 1214 1735.24 1214 1231 1214 726.764 1622.76 318 2127 318Z" fill="url(#fill4)" fill-rule="evenodd"/></g></g></svg>